<?xml version="1.0" encoding="UTF-8"?>
<svg id="Layer_2" data-name="Layer 2" xmlns="http://www.w3.org/2000/svg" viewBox="0 0 493.66 204.34">
  <defs>
    <style>
      .cls-1 {
        fill: #020202;
      }
    </style>
  </defs>
  <g id="Layer_1-2" data-name="Layer 1">
    <g>
      <path class="cls-1" d="M234.85,1.65l35.25,119.81L306.32,1.69l52.13-.33,39.14,134.1L436.56,1.43l2.97-1.03c15.56,1.14,32.77-1.33,48.1,0,2.27.2,4.3.27,6.03,2.04l-61.59,199.49c-1.6,1.41-3.47,1.38-5.44,1.56-12.32,1.1-36.78,1.12-49.09,0-2.57-.23-4.67-.39-6.49-2.51l-38.46-114.54-35.65,115.87-49.69-.03-29.67-89.71c1.9-12.41-1.62-27.71-5.23-39.89-8.52-28.7-26.05-50.45-46.26-71.74l68.76.69Z"/>
      <path class="cls-1" d="M198.33,104.74c0,54.77-44.4,99.16-99.16,99.16S0,159.5,0,104.74,44.4,5.57,99.16,5.57s99.16,44.4,99.16,99.16ZM90.87,52.74c-60.44,7.25-57.54,113.73,15.62,105.62,61.51-6.82,58.33-114.48-15.62-105.62Z"/>
    </g>
  </g>
</svg>